<mxfile host="app.diagrams.net" modified="2021-03-07T17:02:43.418Z" agent="5.0 (Windows NT 10.0; Win64; x64) AppleWebKit/537.36 (KHTML, like Gecko) Chrome/88.0.4324.190 Safari/537.36" etag="kNm7Off5wb_KVK2qPxgB" version="14.4.4" type="github">
  <diagram id="kgpKYQtTHZ0yAKxKKP6v" name="Page-1">
    <mxGraphModel dx="1038" dy="548" grid="1" gridSize="10" guides="1" tooltips="1" connect="1" arrows="1" fold="1" page="1" pageScale="1" pageWidth="850" pageHeight="1100" math="0" shadow="0">
      <root>
        <mxCell id="0" />
        <mxCell id="1" parent="0" />
        <mxCell id="qYhOaUoZgo6TbX7D6caA-1" value="Napvihar" style="shape=umlFrame;whiteSpace=wrap;html=1;" parent="1" vertex="1">
          <mxGeometry x="10" y="40" width="740" height="510" as="geometry" />
        </mxCell>
        <mxCell id="SgDfIWWzx2ZMo61pQXlU-1" value="loop" style="shape=umlFrame;whiteSpace=wrap;html=1;" parent="1" vertex="1">
          <mxGeometry x="50" y="160" width="650" height="290" as="geometry" />
        </mxCell>
        <mxCell id="SgDfIWWzx2ZMo61pQXlU-2" value="opt" style="shape=umlFrame;whiteSpace=wrap;html=1;" parent="1" vertex="1">
          <mxGeometry x="210" y="230" width="490" height="190" as="geometry" />
        </mxCell>
        <mxCell id="3nuBFxr9cyL0pnOWT2aG-1" value="p:Palya" style="shape=umlLifeline;perimeter=lifelinePerimeter;container=1;collapsible=0;recursiveResize=0;rounded=0;shadow=0;strokeWidth=1;" parent="1" vertex="1">
          <mxGeometry x="130" y="50" width="100" height="450" as="geometry" />
        </mxCell>
        <mxCell id="3nuBFxr9cyL0pnOWT2aG-2" value="" style="points=[];perimeter=orthogonalPerimeter;rounded=0;shadow=0;strokeWidth=1;" parent="3nuBFxr9cyL0pnOWT2aG-1" vertex="1">
          <mxGeometry x="45" y="100" width="10" height="320" as="geometry" />
        </mxCell>
        <mxCell id="fCaX27pMjF2Q6U7E_pNl-6" value="1: Napvihar()" style="endArrow=classic;html=1;entryX=0.516;entryY=0.218;entryDx=0;entryDy=0;entryPerimeter=0;" parent="1" target="3nuBFxr9cyL0pnOWT2aG-1" edge="1">
          <mxGeometry x="-0.0016" y="16" width="50" height="50" relative="1" as="geometry">
            <mxPoint x="10" y="148" as="sourcePoint" />
            <mxPoint x="182" y="130" as="targetPoint" />
            <mxPoint y="-1" as="offset" />
          </mxGeometry>
        </mxCell>
        <mxCell id="fCaX27pMjF2Q6U7E_pNl-9" value="[for each Aszteroida]" style="text;html=1;strokeColor=none;fillColor=none;align=center;verticalAlign=middle;whiteSpace=wrap;rounded=0;" parent="1" vertex="1">
          <mxGeometry x="50" y="190" width="120" height="20" as="geometry" />
        </mxCell>
        <mxCell id="fCaX27pMjF2Q6U7E_pNl-11" value="2: Napvihar()" style="endArrow=classic;html=1;entryX=0.086;entryY=0.007;entryDx=0;entryDy=0;entryPerimeter=0;" parent="1" target="3nuBFxr9cyL0pnOWT2aG-6" edge="1">
          <mxGeometry x="-0.0333" y="20" width="50" height="50" relative="1" as="geometry">
            <mxPoint x="180" y="212" as="sourcePoint" />
            <mxPoint x="324" y="221" as="targetPoint" />
            <mxPoint as="offset" />
          </mxGeometry>
        </mxCell>
        <mxCell id="fCaX27pMjF2Q6U7E_pNl-14" value="[kulsoretegek !=0 || mag != null ]" style="text;html=1;strokeColor=none;fillColor=none;align=center;verticalAlign=middle;whiteSpace=wrap;rounded=0;" parent="1" vertex="1">
          <mxGeometry x="200" y="270" width="200" height="20" as="geometry" />
        </mxCell>
        <mxCell id="3nuBFxr9cyL0pnOWT2aG-5" value="a:Aszteroida" style="shape=umlLifeline;perimeter=lifelinePerimeter;container=1;collapsible=0;recursiveResize=0;rounded=0;shadow=0;strokeWidth=1;" parent="1" vertex="1">
          <mxGeometry x="350" y="60" width="100" height="510" as="geometry" />
        </mxCell>
        <mxCell id="3nuBFxr9cyL0pnOWT2aG-6" value="" style="points=[];perimeter=orthogonalPerimeter;rounded=0;shadow=0;strokeWidth=1;" parent="3nuBFxr9cyL0pnOWT2aG-5" vertex="1">
          <mxGeometry x="45" y="150" width="10" height="220" as="geometry" />
        </mxCell>
        <mxCell id="fCaX27pMjF2Q6U7E_pNl-3" value="h:Hajo" style="shape=umlLifeline;perimeter=lifelinePerimeter;container=1;collapsible=0;recursiveResize=0;rounded=0;shadow=0;strokeWidth=1;" parent="1" vertex="1">
          <mxGeometry x="540" y="50" width="100" height="520" as="geometry" />
        </mxCell>
        <mxCell id="fCaX27pMjF2Q6U7E_pNl-4" value="" style="points=[];perimeter=orthogonalPerimeter;rounded=0;shadow=0;strokeWidth=1;" parent="fCaX27pMjF2Q6U7E_pNl-3" vertex="1">
          <mxGeometry x="45" y="290" width="10" height="60" as="geometry" />
        </mxCell>
        <mxCell id="fCaX27pMjF2Q6U7E_pNl-17" value="[for each h: Hajo on a:Aszteroida]" style="text;html=1;strokeColor=none;fillColor=none;align=center;verticalAlign=middle;whiteSpace=wrap;rounded=0;" parent="1" vertex="1">
          <mxGeometry x="230" y="340" width="120" height="30" as="geometry" />
        </mxCell>
        <mxCell id="fCaX27pMjF2Q6U7E_pNl-19" value="&lt;span style=&quot;color: rgb(0 , 0 , 0) ; font-family: &amp;#34;helvetica&amp;#34; ; font-size: 11px ; font-style: normal ; font-weight: 400 ; letter-spacing: normal ; text-align: center ; text-indent: 0px ; text-transform: none ; word-spacing: 0px ; background-color: rgb(255 , 255 , 255) ; display: inline ; float: none&quot;&gt;3: Napvihar()&lt;/span&gt;" style="endArrow=classic;html=1;exitX=1.419;exitY=0.618;exitDx=0;exitDy=0;exitPerimeter=0;" parent="1" source="3nuBFxr9cyL0pnOWT2aG-6" target="fCaX27pMjF2Q6U7E_pNl-3" edge="1">
          <mxGeometry x="0.0554" y="15" width="50" height="50" relative="1" as="geometry">
            <mxPoint x="550" y="340" as="sourcePoint" />
            <mxPoint x="600" y="290" as="targetPoint" />
            <mxPoint as="offset" />
          </mxGeometry>
        </mxCell>
        <mxCell id="fCaX27pMjF2Q6U7E_pNl-21" value="" style="endArrow=classic;html=1;dashed=1;" parent="1" edge="1">
          <mxGeometry width="50" height="50" relative="1" as="geometry">
            <mxPoint x="589" y="395" as="sourcePoint" />
            <mxPoint x="403" y="395" as="targetPoint" />
          </mxGeometry>
        </mxCell>
        <mxCell id="fCaX27pMjF2Q6U7E_pNl-22" value="" style="endArrow=classic;html=1;dashed=1;" parent="1" edge="1">
          <mxGeometry width="50" height="50" relative="1" as="geometry">
            <mxPoint x="400" y="426" as="sourcePoint" />
            <mxPoint x="175" y="426" as="targetPoint" />
          </mxGeometry>
        </mxCell>
        <mxCell id="fCaX27pMjF2Q6U7E_pNl-23" value="" style="endArrow=classic;html=1;dashed=1;exitX=0.133;exitY=0.978;exitDx=0;exitDy=0;exitPerimeter=0;entryX=0;entryY=0.827;entryDx=0;entryDy=0;entryPerimeter=0;" parent="1" source="3nuBFxr9cyL0pnOWT2aG-2" target="qYhOaUoZgo6TbX7D6caA-1" edge="1">
          <mxGeometry width="50" height="50" relative="1" as="geometry">
            <mxPoint x="104.02999999999992" y="489.99999999999994" as="sourcePoint" />
            <mxPoint x="30" y="463" as="targetPoint" />
          </mxGeometry>
        </mxCell>
        <mxCell id="SgDfIWWzx2ZMo61pQXlU-3" value="loop" style="shape=umlFrame;whiteSpace=wrap;html=1;width=60;height=20;" parent="1" vertex="1">
          <mxGeometry x="230" y="300" width="390" height="110" as="geometry" />
        </mxCell>
      </root>
    </mxGraphModel>
  </diagram>
</mxfile>
